<svg viewBox="0 0 512 512" xmlns="http://www.w3.org/2000/svg"><path d="m120 180c0-97.296875 65.433594-143.761719 90.511719-180-16.425781 12.050781-210.511719 59.289062-210.511719 256 0 140.609375 115.390625 256 256 256 196.6875 0 243.710938-193.75 256-210.496094-33.84375 23.414063-82.789062 90.496094-181 90.496094-115.796875 0-211-96.203125-211-212zm0 0"/><path d="m417.253906 79.085938-41.253906-79.085938-40.386719 79.203125-90.132812 13.257813 65.332031 63.484374-15.246094 90.824219 80.433594-42.523437 81.84375 42.246094-15.539062-90.75 65.125-63.707032zm0 0"/></svg>